{"accessors":[{"bufferView":0,"componentType":5126,"count":24,"max":[0.5,0.5,0.5],"min":[-0.5,-0.5,-0.5],"type":"VEC3"},{"bufferView":1,"componentType":5126,"count":24,"max":[1.0,1.0,1.0],"min":[-1.0,-1.0,-1.0],"type":"VEC3"},{"bufferView":2,"componentType":5126,"count":24,"type":"VEC2"},{"bufferView":3,"componentType":5125,"count":36,"type":"SCALAR"},{"bufferView":4,"componentType":5126,"count":4,"max":[5.0,5.0,1.1754943508222876e-38],"min":[-5.0,-5.0,0.0],"type":"VEC3"},{"bufferView":5,"componentType":5126,"count":4,"max":[1.1754943508222876e-38,1.1754943508222876e-38,1.0],"min":[0.0,0.0,1.0],"type":"VEC3"},{"bufferView":6,"componentType":5126,"count":4,"type":"VEC2"},{"bufferView":7,"componentType":5125,"count":6,"type":"SCALAR"}],"asset":{"generator":"SimLab GLTF","version":"2.0"},"bufferViews":[{"buffer":0,"byteLength":288,"byteStride":12,"target":34962},{"buffer":0,"byteLength":288,"byteOffset":288,"byteStride":12,"target":34962},{"buffer":0,"byteLength":192,"byteOffset":576,"byteStride":8,"target":34962},{"buffer":0,"byteLength":144,"byteOffset":768,"target":34963},{"buffer":0,"byteLength":48,"byteOffset":912,"byteStride":12,"target":34962},{"buffer":0,"byteLength":48,"byteOffset":960,"byteStride":12,"target":34962},{"buffer":0,"byteLength":32,"byteOffset":1008,"byteStride":8,"target":34962},{"buffer":0,"byteLength":24,"byteOffset":1040,"target":34963}],"buffers":[{"byteLength":1064,"uri":"GlobalBuffer.bin"}],"images":[{"uri":"Textures/wood.jpg"}],"materials":[{"alphaMode":"BLEND","doubleSided":true,"pbrMetallicRoughness":{"baseColorFactor":[0.25999999046325686,1.0,0.0,1.0],"roughnessFactor":9.854999542236329}},{"alphaMode":"BLEND","doubleSided":true,"pbrMetallicRoughness":{"baseColorFactor":[0.25999999046325686,1.0,0.0,1.0],"roughnessFactor":9.854999542236329}},{"alphaMode":"BLEND","doubleSided":true,"pbrMetallicRoughness":{"baseColorFactor":[0.25999999046325686,1.0,0.0,1.0],"roughnessFactor":9.854999542236329}},{"alphaMode":"BLEND","doubleSided":true,"pbrMetallicRoughness":{"baseColorFactor":[0.25999999046325686,1.0,0.0,1.0],"roughnessFactor":9.854999542236329}},{"alphaMode":"BLEND","doubleSided":true,"pbrMetallicRoughness":{"baseColorFactor":[0.25999999046325686,1.0,0.0,1.0],"roughnessFactor":9.854999542236329}},{"alphaMode":"BLEND","doubleSided":true,"pbrMetallicRoughness":{"baseColorFactor":[0.25999999046325686,1.0,0.0,1.0],"roughnessFactor":9.854999542236329}},{"alphaMode":"BLEND","doubleSided":true,"pbrMetallicRoughness":{"baseColorFactor":[0.25999999046325686,1.0,0.0,1.0],"roughnessFactor":9.854999542236329}},{"alphaMode":"BLEND","doubleSided":true,"pbrMetallicRoughness":{"baseColorFactor":[0.8999999761581421,0.8999999761581421,0.8999999761581421,1.0],"baseColorTexture":{"index":0},"metallicFactor":0.0}}],"meshes":[{"primitives":[{"attributes":{"NORMAL":1,"POSITION":0,"TEXCOORD_0":2},"indices":3,"material":0,"mode":4}]},{"primitives":[{"attributes":{"NORMAL":1,"POSITION":0,"TEXCOORD_0":2},"indices":3,"material":1,"mode":4}]},{"primitives":[{"attributes":{"NORMAL":1,"POSITION":0,"TEXCOORD_0":2},"indices":3,"material":2,"mode":4}]},{"primitives":[{"attributes":{"NORMAL":1,"POSITION":0,"TEXCOORD_0":2},"indices":3,"material":3,"mode":4}]},{"primitives":[{"attributes":{"NORMAL":1,"POSITION":0,"TEXCOORD_0":2},"indices":3,"material":4,"mode":4}]},{"primitives":[{"attributes":{"NORMAL":1,"POSITION":0,"TEXCOORD_0":2},"indices":3,"material":5,"mode":4}]},{"primitives":[{"attributes":{"NORMAL":1,"POSITION":0,"TEXCOORD_0":2},"indices":3,"material":6,"mode":4}]},{"primitives":[{"attributes":{"NORMAL":5,"POSITION":4,"TEXCOORD_0":6},"indices":7,"material":7,"mode":4}]}],"nodes":[{"children":[1,7,9,11],"matrix":[1.0,0.0,0.0,0.0,0.0,4.4896593387466768e-11,-1.0,0.0,0.0,1.0,4.4896593387466768e-11,0.0,0.0,0.0,0.0,1.0]},{"name":"Box","children":[2,3,4,5,6]},{"name":"3DGeom~5","matrix":[1.0,0.0,-5.828670879282072e-16,0.0,-9.860761462199442e-33,1.0,-5.551115205843844e-18,2.220446049250313e-16,0.0,0.0,1.0,0.0,8.881784197001253e-16,-1.4044957160949708,0.5,1.0],"mesh":0},{"name":"3DGeom~5~1","matrix":[1.0,0.0,-1.0491607370949493e-15,0.0,5.17689945541402e-32,1.0,1.457167719820518e-16,0.0,-9.978150883113165e-32,0.0,1.0,0.0,8.881784197001253e-16,-3.198610305786133,0.5,1.0],"mesh":1},{"name":"3DGeom~5~1~2","matrix":[1.0,0.0,-5.828670614584276e-17,0.0,0.0,1.0,0.0,0.0,0.0,0.0,1.0,0.0,8.881784197001253e-16,0.0,0.5,1.0],"mesh":2},{"name":"3DGeom~5~1~2~3","matrix":[1.0,0.0,-6.411538073089397e-16,0.0,3.106139908347282e-31,1.0,-1.7486013167241808e-16,0.0,-5.869500726918512e-32,0.0,1.0,0.0,8.881784197001253e-16,1.819778323173523,0.5,1.0],"mesh":3},{"name":"3DGeom~5~1~2~4","matrix":[1.0,5.125697907564994e-15,-2.3314683517128289e-15,0.0,-3.079371074386268e-16,1.0,3.4798575162709618e-16,0.0,-1.1102230246251566e-16,3.304040899112636e-15,1.0,0.0,1.2212453270876722e-15,3.7098875045776369,0.5,1.0],"mesh":4},{"name":"Box","children":[8]},{"name":"3DGeom~5","matrix":[1.0,-1.8214596497756476e-17,-2.914335307292138e-17,0.0,0.0,1.0,0.0,0.0,0.0,0.0,1.0,0.0,-2.7943766117095949,-0.2760683596134186,0.5,1.0],"mesh":5},{"name":"Box","children":[10]},{"name":"3DGeom~5","matrix":[1.0,1.1657341229168552e-16,-1.1657341229168552e-16,0.0,0.0,1.0,0.0,0.0,0.0,0.0,1.0,0.0,3.220974922180176,-1.5782676935195923,0.5,1.0],"mesh":6},{"name":"Ground","children":[12]},{"name":"3DGeom~1","mesh":7}],"samplers":[{"wrapS":10497,"wrapT":10497}],"scene":0,"scenes":[{"nodes":[0]}],"textures":[{"sampler":0,"source":0}]}